<?xml version="1.0" standalone="no"?>
<!DOCTYPE svg PUBLIC "-//W3C//DTD SVG 1.1//EN" "http://www.w3.org/Graphics/SVG/1.1/DTD/svg11.dtd" >
<svg xmlns="http://www.w3.org/2000/svg" xmlns:xlink="http://www.w3.org/1999/xlink" version="1.1">
<metadata>
Created by FontForge 20170731 at Mon Aug 22 19:47:42 2022
 By Aleksey,,,
Copyright (c) 1988, 1990 Adobe Systems Incorporated.  All Rights Reserved.Helvetica is a registered trademark of Linotype AG and/or its subsidiaries.
</metadata>
<defs>
<font id="HelveticaNeueRegular" horiz-adv-x="1024" >
  <font-face 
    font-family="HelveticaNeue"
    font-weight="5"
    font-stretch="normal"
    units-per-em="2048"
    panose-1="0 0 0 0 0 0 0 0 0 0"
    ascent="1638"
    descent="-410"
    x-height="1053"
    cap-height="1462"
    bbox="-340 -477 2081 1907"
    underline-thickness="102"
    underline-position="-255"
    unicode-range="U+0020-F002"
  />
<missing-glyph horiz-adv-x="1642" 
d="M102 0v1642h1438v-1642h-1438zM1438 102v1438h-1233v-1438h1233z" />
    <glyph glyph-name=".notdef" horiz-adv-x="1642" 
d="M102 0v1642h1438v-1642h-1438zM1438 102v1438h-1233v-1438h1233z" />
    <glyph glyph-name=".null" horiz-adv-x="0" 
 />
    <glyph glyph-name="nonmarkingreturn" horiz-adv-x="569" 
 />
    <glyph glyph-name="space" unicode=" " horiz-adv-x="569" 
 />
    <glyph glyph-name="exclam" unicode="!" horiz-adv-x="378" 
d="M170 0v201h41v-201h-41zM170 373v1089h41v-1089h-41z" />
    <glyph glyph-name="quotedbl" unicode="&#x22;" horiz-adv-x="569" 
d="M190 1001h-40v461h40v-461zM420 1001h-41v461h41v-461z" />
    <glyph glyph-name="numbersign" unicode="#" horiz-adv-x="1138" 
d="M502 1393l-64 -480h350l64 480h41l-64 -480h238v-41h-248l-49 -362h240v-41h-248l-64 -469h-41l64 469h-352l-64 -469h-41l64 469h-256v41h266l49 362h-258v41h268l64 480h41zM379 510h350l49 362h-350z" />
    <glyph glyph-name="dollar" unicode="$" horiz-adv-x="1138" 
d="M543 1456q-180 0 -314 -80q-133 -79 -133 -256q0 -162 109 -226q108 -63 338 -114v676zM53 485q0 -240 131 -359q130 -118 359 -118v729q-167 38 -262 71q-91 32 -158 105q-68 74 -68 207q0 197 144 287t344 90v88h41v-90q218 0 353 -109q134 -108 134 -333h-41
q0 206 -122 304q-121 97 -324 97v-684l16 -4q209 -54 293 -83q80 -27 143 -104q64 -78 64 -221q0 -191 -154 -292t-362 -101v-180h-41v182q-241 0 -386 131t-145 387h41zM584 6q193 0 335 89q140 88 140 265q0 183 -114 246q-117 65 -361 121v-721z" />
    <glyph glyph-name="percent" unicode="%" horiz-adv-x="1402" 
d="M1042 16q132 0 204 87q73 88 73 219q0 145 -69 229t-208 84q-135 0 -202 -85q-68 -86 -68 -228q0 -134 69 -220t201 -86zM354 1417q153 0 235 -97q83 -98 83 -255q0 -148 -85 -248t-233 -100q-152 0 -231 99q-80 100 -80 247q0 160 82 257t229 97zM354 758q132 0 204 87
q73 88 73 218q0 145 -69 229t-208 84q-135 0 -202 -85q-68 -86 -68 -228q0 -133 69 -219t201 -86zM1042 676q153 0 235 -97q83 -98 83 -255q0 -148 -85 -248q-86 -101 -233 -101q-151 0 -231 100t-80 247q0 160 82 257t229 97zM1155 1462h47l-975 -1532h-47z" />
    <glyph glyph-name="ampersand" unicode="&#x26;" horiz-adv-x="1175" 
d="M518 827q143 97 227 178q78 75 78 185q0 106 -73 169q-72 62 -183 62t-185 -61q-75 -62 -75 -166q0 -95 211 -367zM508 774q-195 -124 -284 -209q-93 -88 -93 -237q0 -150 112 -236t265 -86q141 0 241 70q98 68 160 194zM1171 0h-53l-182 231q-66 -122 -173 -193
q-109 -73 -255 -73q-163 0 -291 101q-127 100 -127 262q0 185 124 287q128 105 269 192l-143 194q-74 106 -74 189q0 134 89 203t210 69q128 0 213 -73q86 -74 86 -199t-68 -190q-73 -70 -253 -203l385 -488q19 42 35 113q14 62 14 145h41q0 -154 -62 -295z" />
    <glyph glyph-name="quotesingle" unicode="'" horiz-adv-x="342" 
d="M152 1462h41v-461h-41v461z" />
    <glyph glyph-name="parenleft" unicode="(" horiz-adv-x="454" 
d="M418 1497q-115 -216 -176 -446q-62 -233 -62 -473q0 -504 240 -940h-41q-126 244 -182 460q-58 223 -58 480q0 236 61 471q60 230 177 448h41z" />
    <glyph glyph-name="parenright" unicode=")" horiz-adv-x="454" 
d="M37 -362q115 216 176 446q61 229 61 473q0 505 -239 940h41q125 -243 182 -461q57 -219 57 -479q0 -240 -60 -471q-60 -230 -177 -448h-41z" />
    <glyph glyph-name="asterisk" unicode="*" horiz-adv-x="720" 
d="M377 1462v-286l270 88l8 -39l-266 -88l170 -224l-33 -24l-170 221l-172 -213l-32 27l180 213l-266 88l12 39l258 -88v286h41z" />
    <glyph glyph-name="plus" unicode="+" horiz-adv-x="1228" 
d="M594 1036h41v-497h495v-41h-495v-498h-41v498h-496v41h496v497z" />
    <glyph glyph-name="comma" unicode="," horiz-adv-x="569" 
d="M305 201v-201q0 -100 -19 -154q-19 -55 -71 -90v41q49 49 49 203v201h41z" />
    <glyph glyph-name="hyphen" unicode="-" horiz-adv-x="681" 
d="M162 569h358v-41h-358v41z" />
    <glyph glyph-name="period" unicode="." horiz-adv-x="569" 
d="M305 0h-41v201h41v-201z" />
    <glyph glyph-name="slash" unicode="/" horiz-adv-x="681" 
d="M-14 -35l669 1532h41l-669 -1532h-41z" />
    <glyph glyph-name="zero" unicode="0" horiz-adv-x="1138" 
d="M569 1376q-260 0 -372 -200q-113 -202 -113 -480q0 -279 112 -480q111 -200 373 -200q261 0 373 201q113 202 113 479q0 280 -112 481q-111 199 -374 199zM569 -25q-274 0 -400 211q-126 212 -126 510q0 303 125 512t401 209q275 0 401 -211q126 -212 126 -510
q0 -303 -125 -512t-402 -209z" />
    <glyph glyph-name="one" unicode="1" horiz-adv-x="1138" 
d="M610 1339q-62 -84 -166 -150t-208 -95v41q122 40 200 97q82 60 170 161h45v-1393h-41v1339z" />
    <glyph glyph-name="two" unicode="2" horiz-adv-x="1138" 
d="M1051 41v-41h-938q0 111 57 195t145 154q84 67 291 211q204 142 285 254q82 113 82 228q0 158 -108 246q-107 88 -279 88q-211 0 -310 -118q-98 -117 -98 -322h-41q0 230 115 356q114 125 334 125q188 0 308 -96t120 -279q0 -120 -81 -239q-80 -118 -282 -259
q-189 -133 -285 -205q-86 -65 -144 -138q-57 -72 -68 -160h897z" />
    <glyph glyph-name="three" unicode="3" horiz-adv-x="1138" 
d="M121 961q0 222 125 339t350 117q184 0 310 -84t126 -258q0 -140 -83 -226q-82 -85 -216 -97q138 -17 232 -108t94 -259q0 -187 -137 -298q-138 -112 -334 -112q-239 0 -372 130q-134 131 -134 366h41q0 -218 122 -337q121 -118 343 -118q178 0 304 99t126 270
q0 170 -110 257t-290 87h-100v41h100q156 0 266 73q107 71 107 232q0 155 -115 228t-280 73q-207 0 -320 -104q-114 -105 -114 -311h-41z" />
    <glyph glyph-name="four" unicode="4" horiz-adv-x="1138" 
d="M776 1335l-665 -932h665v932zM70 362v50l696 981h51v-990h252v-41h-252v-362h-41v362h-706z" />
    <glyph glyph-name="five" unicode="5" horiz-adv-x="1138" 
d="M301 1352l-127 -596q61 93 160 140q100 48 225 48q215 0 348 -135q133 -134 133 -346q0 -219 -132 -353q-133 -135 -349 -135q-221 0 -352 125t-131 346h41q0 -203 117 -316q118 -114 325 -114q204 0 322 121t118 326q0 196 -120 317q-122 123 -320 123q-127 0 -229 -54
q-103 -55 -160 -159h-51l149 703h715v-41h-682z" />
    <glyph glyph-name="six" unicode="6" horiz-adv-x="1138" 
d="M578 897q-183 0 -312 -129t-129 -311q0 -183 129 -312t312 -129q182 0 311 129t129 312q0 182 -129 311t-311 129zM993 1065q-38 172 -147 241q-110 70 -244 70q-192 0 -300 -122q-107 -121 -145 -296q-38 -176 -38 -370q34 149 164 250q128 100 295 100q190 0 335 -136
q146 -137 146 -345q0 -205 -143 -343q-144 -139 -338 -139q-134 0 -241 64t-163 151q-58 91 -76 201q-18 113 -18 266q0 310 122 536q121 224 402 224q176 0 292 -99q115 -99 138 -253h-41z" />
    <glyph glyph-name="seven" unicode="7" horiz-adv-x="1138" 
d="M125 1352v41h889v-56q-309 -309 -468 -624q-161 -319 -161 -713h-41q0 390 161 721q160 328 464 631h-844z" />
    <glyph glyph-name="eight" unicode="8" horiz-adv-x="1138" 
d="M569 741q-208 0 -336 -82q-129 -83 -129 -270q0 -188 133 -280q134 -93 332 -93q203 0 334 92t131 281q0 187 -130 269q-131 83 -335 83zM1075 389q0 -207 -142 -310q-143 -104 -364 -104q-218 0 -362 105t-144 309q0 158 96 259q95 100 261 116q-126 18 -206 100
q-81 82 -81 201q0 178 120 265t316 87q195 0 316 -87t121 -265q0 -119 -81 -200q-80 -80 -206 -97q164 -18 260 -119t96 -260zM569 1376q-172 0 -283 -72q-112 -73 -112 -239q0 -139 120 -211t275 -72q159 0 277 72q119 72 119 211q0 164 -113 238q-112 73 -283 73z" />
    <glyph glyph-name="nine" unicode="9" horiz-adv-x="1138" 
d="M145 328q38 -171 148 -241q112 -71 244 -71q192 0 300 122q107 121 145 296q38 176 38 371q-34 -149 -164 -250q-128 -100 -295 -100q-191 0 -336 136t-145 345q0 205 142 343t339 138q136 0 241 -63q106 -64 163 -152q56 -87 76 -200q20 -114 20 -267q0 -310 -123 -535
t-403 -225q-175 0 -292 100q-116 100 -139 253h41zM561 1376q-182 0 -311 -129t-129 -311t129 -311t311 -129t311 129t129 311t-129 311t-311 129z" />
    <glyph glyph-name="colon" unicode=":" horiz-adv-x="569" 
d="M264 0v201h41v-201h-41zM264 852v201h41v-201h-41z" />
    <glyph glyph-name="semicolon" unicode=";" horiz-adv-x="569" 
d="M305 0q0 -100 -19 -154q-19 -55 -71 -90v41q49 49 49 203v201h41v-201zM264 852v201h41v-201h-41z" />
    <glyph glyph-name="less" unicode="&#x3c;" horiz-adv-x="1228" 
d="M1135 -16l-1041 510v49l1041 510v-43l-1004 -492l1004 -491v-43z" />
    <glyph glyph-name="equal" unicode="=" horiz-adv-x="1228" 
d="M98 696v41h1032v-41h-1032zM98 299v41h1032v-41h-1032z" />
    <glyph glyph-name="greater" unicode="&#x3e;" horiz-adv-x="1228" 
d="M1098 518l-1004 492v43l1041 -510v-49l-1041 -510v43z" />
    <glyph glyph-name="question" unicode="?" 
d="M72 1010q0 221 115 354t329 133q176 0 290 -90t114 -250q0 -130 -54 -209q-49 -72 -147 -157q-115 -110 -160 -196q-43 -82 -43 -222h-41q0 138 41 229q40 89 128 174l144 139q91 112 91 242q0 140 -101 220q-100 79 -262 79q-199 0 -301 -120t-102 -326h-41zM475 0v201
h41v-201h-41z" />
    <glyph glyph-name="at" unicode="@" horiz-adv-x="1638" 
d="M1145 934q-27 97 -102 141q-74 43 -169 43q-182 0 -309 -181t-127 -370q0 -111 69 -183q70 -73 177 -73q95 0 180 56q84 56 135 190zM1217 1120h43l-228 -590q-10 -26 -24 -76q-11 -39 -11 -63q0 -80 86 -80q137 0 267 159q131 160 131 372q0 254 -175 414
q-176 161 -448 161q-297 0 -499 -202q-201 -201 -201 -492q0 -336 200 -521q201 -186 500 -186q180 0 337 89q156 88 257 235h47q-101 -164 -275 -264q-176 -101 -366 -101q-302 0 -522 191q-219 191 -219 557q0 315 216 525t525 210q283 0 473 -169q191 -170 191 -447
q0 -227 -143 -400q-142 -172 -300 -172q-55 0 -89 30t-34 77q0 12 2 22q-52 -69 -128 -99q-75 -30 -154 -30q-119 0 -199 86t-80 211q0 209 141 401q140 191 345 191q97 0 176 -47q76 -45 104 -127z" />
    <glyph glyph-name="A" unicode="A" horiz-adv-x="1177" 
d="M946 522l-348 899l-365 -899h713zM217 481l-194 -481h-48l594 1462h54l577 -1462h-45l-192 481h-746z" />
    <glyph glyph-name="B" unicode="B" horiz-adv-x="1251" 
d="M137 41h582q185 0 304 90q118 90 118 264q0 178 -120 262t-296 84h-588v-700zM96 1462h629q181 0 296 -94q116 -95 116 -270q0 -135 -89 -235q-88 -99 -221 -99q147 -4 251 -104q104 -99 104 -263q0 -193 -132 -295t-350 -102h-604v1462zM137 782h588q156 0 263 82
q108 82 108 234q0 157 -104 240t-267 83h-588v-639z" />
    <glyph glyph-name="C" unicode="C" horiz-adv-x="1402" 
d="M1356 573q-39 -275 -206 -442q-166 -166 -437 -166q-293 0 -477 211q-185 212 -185 543q0 310 171 544t517 234q265 0 424 -156q160 -157 160 -317h-41q-15 172 -164 301q-151 131 -379 131q-329 0 -487 -230q-160 -232 -160 -507q0 -295 168 -504t453 -209
q253 0 410 157q158 158 192 410h41z" />
    <glyph glyph-name="D" unicode="D" horiz-adv-x="1327" 
d="M111 1462h512q258 0 440 -169t182 -562q0 -367 -197 -549t-489 -182h-448v1462zM152 41h417q277 0 456 176t179 514q0 376 -169 533t-423 157h-460v-1380z" />
    <glyph glyph-name="E" unicode="E" horiz-adv-x="1099" 
d="M152 41h938v-41h-979v1462h970v-41h-929v-639h874v-41h-874v-700z" />
    <glyph glyph-name="F" unicode="F" horiz-adv-x="985" 
d="M152 782h778v-41h-778v-741h-41v1462h901v-41h-860v-639z" />
    <glyph glyph-name="G" unicode="G" horiz-adv-x="1478" 
d="M772 643v41h608v-686h-41v364q-60 -184 -217 -290q-158 -107 -370 -107q-328 0 -507 216q-179 217 -179 550t185 549q186 217 501 217q244 0 407 -133q165 -135 199 -358h-41q-39 205 -190 328q-151 122 -375 122q-295 0 -470 -208q-176 -209 -176 -517q0 -313 170 -519
t482 -206q244 0 413 160q168 159 168 401v76h-567z" />
    <glyph glyph-name="H" unicode="H" horiz-adv-x="1327" 
d="M152 741v-741h-41v1462h41v-680h1024v680h41v-1462h-41v741h-1024z" />
    <glyph glyph-name="I" unicode="I" horiz-adv-x="262" 
d="M111 1462h41v-1462h-41v1462z" />
    <glyph glyph-name="J" unicode="J" horiz-adv-x="948" 
d="M786 1462h41v-1081q0 -193 -95 -305q-94 -111 -306 -111q-197 0 -293 110t-96 290v88h41v-88q0 -359 348 -359q184 0 272 90q88 89 88 316v1050z" />
    <glyph glyph-name="K" unicode="K" horiz-adv-x="1214" 
d="M152 518v-518h-41v1462h41v-889l1013 889h62l-707 -622l748 -840h-56l-725 815z" />
    <glyph glyph-name="L" unicode="L" horiz-adv-x="985" 
d="M1006 41v-41h-895v1462h41v-1421h854z" />
    <glyph glyph-name="M" unicode="M" horiz-adv-x="1597" 
d="M1419 1462h68v-1462h-41v1411l-625 -1411h-45l-620 1411l-4 -1411h-41v1462h67l619 -1409z" />
    <glyph glyph-name="N" unicode="N" horiz-adv-x="1327" 
d="M111 1462h61l999 -1411l5 1411h41v-1462h-62l-999 1411l-4 -1411h-41v1462z" />
    <glyph glyph-name="O" unicode="O" horiz-adv-x="1476" 
d="M739 6q290 0 462 202q171 201 171 523t-171 523q-172 202 -462 202q-289 0 -461 -202t-172 -523t172 -523t461 -202zM739 1497q317 0 496 -219q178 -218 178 -547t-178 -547q-179 -219 -496 -219t-495 219q-178 218 -178 547t178 547q178 219 495 219z" />
    <glyph glyph-name="P" unicode="P" horiz-adv-x="1175" 
d="M152 707h550q175 0 290 95q114 94 114 261q0 358 -404 358h-550v-714zM152 0h-41v1462h591q211 0 328 -102t117 -297q0 -188 -128 -293q-126 -104 -337 -104h-530v-666z" />
    <glyph glyph-name="Q" unicode="Q" horiz-adv-x="1476" 
d="M874 319l23 33l264 -182q100 95 156 241q55 143 55 320q0 322 -171 523q-172 202 -462 202q-289 0 -461 -202t-172 -523t172 -523t461 -202q117 0 216 35t178 102zM1169 119q-85 -74 -191 -114q-107 -40 -239 -40q-317 0 -495 219q-178 218 -178 547t178 547
q178 219 495 219t496 -219q178 -218 178 -547q0 -179 -54 -329q-54 -149 -163 -257l236 -161l-21 -29z" />
    <glyph glyph-name="R" unicode="R" horiz-adv-x="1251" 
d="M152 727h546q177 0 296 91q120 92 120 274q0 158 -95 244q-94 85 -300 85h-567v-694zM152 0h-41v1462h598q446 0 446 -375q0 -145 -81 -244t-232 -132q174 -27 231 -122t57 -288q0 -90 8 -183q8 -91 27 -118h-45q-15 37 -23 128q-7 81 -7 179q0 200 -76 289
q-76 90 -312 90h-550v-686z" />
    <glyph glyph-name="S" unicode="S" horiz-adv-x="1251" 
d="M1087 1053q0 211 -129 307t-346 96q-186 0 -322 -79t-136 -257q0 -204 132 -251q118 -42 358 -102q226 -57 306 -84q81 -28 144 -104q63 -77 63 -221q0 -192 -153 -292q-154 -101 -363 -101q-266 0 -418 127q-153 128 -153 393h41q0 -251 140 -364q142 -115 390 -115
q193 0 335 89q140 88 140 265q0 191 -114 248q-117 58 -356 116q-245 59 -388 115q-145 57 -145 281q0 200 146 288q148 89 353 89q235 0 375 -106q141 -107 141 -338h-41z" />
    <glyph glyph-name="T" unicode="T" 
d="M-35 1421v41h1094v-41h-527v-1421h-40v1421h-527z" />
    <glyph glyph-name="U" unicode="U" horiz-adv-x="1294" 
d="M1143 1462h41v-917q0 -286 -138 -433t-399 -147q-536 0 -536 580v917h41v-917q0 -267 122 -402q123 -137 373 -137t373 136t123 403v917z" />
    <glyph glyph-name="V" unicode="V" horiz-adv-x="1101" 
d="M1098 1462h41l-557 -1462h-45l-574 1462h41l553 -1409z" />
    <glyph glyph-name="W" unicode="W" horiz-adv-x="1781" 
d="M1761 1462h41l-424 -1462h-55l-430 1411l-426 -1411h-55l-432 1462h43l413 -1411l426 1411h60l428 -1411z" />
    <glyph glyph-name="X" unicode="X" horiz-adv-x="1064" 
d="M1044 1462h52l-533 -710l557 -752h-51l-534 719l-539 -719h-51l563 752l-533 710h54l506 -678z" />
    <glyph glyph-name="Y" unicode="Y" horiz-adv-x="1101" 
d="M1114 1462h49l-592 -846v-616h-41v616l-591 846h51l561 -803z" />
    <glyph glyph-name="Z" unicode="Z" 
d="M1040 41v-41h-1079v55l1022 1366h-965v41h1006v-55l-1022 -1366h1038z" />
    <glyph glyph-name="bracketleft" unicode="[" horiz-adv-x="454" 
d="M428 1497v-41h-190v-1778h190v-40h-231v1859h231z" />
    <glyph glyph-name="backslash" unicode="\" horiz-adv-x="681" 
d="M655 -35l-669 1532h41l669 -1532h-41z" />
    <glyph glyph-name="bracketright" unicode="]" horiz-adv-x="454" 
d="M27 -362v40h190v1778h-190v41h231v-1859h-231z" />
    <glyph glyph-name="asciicircum" unicode="^" horiz-adv-x="1228" 
d="M1108 465h-41l-453 887l-452 -887h-41l473 928h41z" />
    <glyph glyph-name="underscore" unicode="_" 
d="M0 -256v102h1024v-102h-1024z" />
    <glyph glyph-name="grave" unicode="`" horiz-adv-x="266" 
d="M-78 1497h60l256 -295h-31z" />
    <glyph glyph-name="a" unicode="a" horiz-adv-x="985" 
d="M819 618q-30 -41 -116 -62t-295 -21q-147 0 -235 -59q-87 -58 -87 -216q0 -102 74 -173t233 -71q198 0 312 121t114 287v194zM111 727q0 155 105 253q104 97 296 97q156 0 252 -69t96 -232v-670q0 -39 24 -54t60 -15h25q15 4 24 4v-41h-30q-88 0 -116 26t-28 76v138
q-38 -110 -151 -187q-114 -78 -271 -78q-159 0 -256 74q-96 74 -96 211q0 177 102 246t261 69q238 0 325 29q86 29 86 141q0 130 -59 210q-60 81 -248 81q-166 0 -263 -81t-97 -228h-41z" />
    <glyph glyph-name="b" unicode="b" horiz-adv-x="1099" 
d="M580 16q194 0 301 147q106 146 106 361q0 207 -102 360q-101 152 -305 152q-196 0 -311 -135q-115 -134 -115 -377q0 -214 114 -361t312 -147zM154 758q41 148 151 233q112 86 275 86q208 0 328 -159t120 -394q0 -244 -121 -396q-121 -153 -327 -153q-159 0 -270 87
t-152 233l-4 -295h-41v1462h41v-704z" />
    <glyph glyph-name="c" unicode="c" 
d="M961 358q-16 -177 -133 -280t-298 -103q-217 0 -342 151t-125 378q0 245 125 409t367 164q154 0 266 -91q113 -92 131 -253h-41q-23 147 -121 225q-99 78 -235 78q-232 0 -341 -158q-110 -160 -110 -374q0 -204 113 -346t313 -142q160 0 275 95t115 247h41z" />
    <glyph glyph-name="d" unicode="d" horiz-adv-x="1099" 
d="M506 1036q-200 0 -304 -153q-104 -154 -104 -359q0 -213 106 -361q105 -147 302 -147q194 0 310 148t116 360q0 241 -115 377q-114 135 -311 135zM932 1462h41v-1462h-41v295q-44 -142 -157 -232q-110 -88 -269 -88q-205 0 -327 154t-122 395q0 235 120 394t329 159
q163 0 273 -86t149 -233z" />
    <glyph glyph-name="e" unicode="e" 
d="M932 559q0 206 -109 342q-108 135 -307 135q-175 0 -300 -131q-124 -130 -124 -346h840zM92 518q0 -228 101 -365t315 -137q166 0 275 90q110 90 137 259h41q-21 -180 -145 -284q-126 -106 -304 -106q-232 0 -347 151q-114 150 -114 400q0 252 135 402q134 149 326 149
q229 0 345 -161t116 -398h-881z" />
    <glyph glyph-name="f" unicode="f" horiz-adv-x="417" 
d="M-2 1012v41h180v233q0 114 56 145t151 31q31 0 49 -3q23 -4 39 -5v-41q-54 8 -96 8q-96 0 -126 -33q-32 -35 -32 -116v-219h227v-41h-227v-1012h-41v1012h-180z" />
    <glyph glyph-name="g" unicode="g" horiz-adv-x="1062" 
d="M510 1036q-195 0 -303 -136q-109 -138 -109 -339q0 -204 104 -334q104 -129 292 -129q195 0 306 132t111 331q0 195 -106 335t-295 140zM913 352q-35 -136 -154 -215q-121 -80 -263 -80q-209 0 -324 145t-115 359q0 222 119 370q118 146 334 146q146 0 258 -86
q111 -85 141 -219l4 281h41v-1018q0 -213 -113 -317q-114 -105 -325 -105q-177 0 -289 82t-112 250h41q0 -147 100 -219t258 -72q196 0 297 94q102 94 102 287v317z" />
    <glyph glyph-name="h" unicode="h" 
d="M113 1462h41v-669q34 125 133 205q98 79 250 79q167 0 271 -99q103 -99 103 -280v-698h-41v692q0 170 -95 257q-94 87 -238 87q-183 0 -283 -126q-100 -125 -100 -314v-596h-41v1462z" />
    <glyph glyph-name="i" unicode="i" horiz-adv-x="266" 
d="M154 0h-41v1053h41v-1053zM154 1255h-41v207h41v-207z" />
    <glyph glyph-name="j" unicode="j" horiz-adv-x="266" 
d="M154 -154q0 -133 -59 -171q-58 -37 -195 -37v40q131 0 172 29t41 154v1192h41v-1207zM154 1255h-41v207h41v-207z" />
    <glyph glyph-name="k" unicode="k" horiz-adv-x="909" 
d="M154 397v-397h-41v1462h41v-1013l727 604h59l-483 -402l518 -651h-55l-494 623z" />
    <glyph glyph-name="l" unicode="l" horiz-adv-x="266" 
d="M113 1462h41v-1462h-41v1462z" />
    <glyph glyph-name="m" unicode="m" horiz-adv-x="1593" 
d="M113 1053h41v-260q33 122 126 203t214 81q124 0 206 -63q81 -62 109 -183q35 112 126 179t212 67q181 0 257 -100q77 -101 77 -285v-692h-41v692q0 169 -65 257q-65 87 -228 87q-151 0 -240 -107q-90 -108 -90 -261v-668h-41v676q0 171 -60 265q-60 95 -222 95
q-152 0 -246 -129q-94 -128 -94 -311v-596h-41v1053z" />
    <glyph glyph-name="n" unicode="n" 
d="M113 1053h41v-260q34 125 133 205q98 79 250 79q167 0 271 -99q103 -99 103 -280v-698h-41v692q0 170 -95 257q-94 87 -238 87q-183 0 -283 -126q-100 -125 -100 -314v-596h-41v1053z" />
    <glyph glyph-name="o" unicode="o" horiz-adv-x="1062" 
d="M532 1077q222 0 348 -161q126 -160 126 -390t-127 -390q-128 -161 -349 -161q-220 0 -347 160q-126 159 -126 391q0 230 126 390q126 161 349 161zM532 16q204 0 318 149q115 150 115 361q0 209 -116 360q-115 150 -317 150q-203 0 -318 -149q-116 -151 -116 -361
q0 -209 116 -360q116 -150 318 -150z" />
    <glyph glyph-name="p" unicode="p" horiz-adv-x="1099" 
d="M987 528q0 215 -105 362q-104 146 -302 146q-196 0 -311 -147q-115 -146 -115 -361q0 -241 114 -376q115 -136 312 -136q200 0 304 154q103 152 103 358zM154 -362h-41v1415h41v-295q44 142 156 231q110 88 270 88q204 0 326 -153q122 -154 122 -396q0 -234 -120 -393
q-121 -160 -328 -160q-164 0 -274 86q-108 85 -148 234z" />
    <glyph glyph-name="q" unicode="q" horiz-adv-x="1099" 
d="M932 1053h41v-1415h-41v657q-41 -148 -152 -234q-112 -86 -274 -86q-208 0 -329 160q-120 159 -120 393q0 245 121 397t328 152q158 0 269 -87q113 -89 153 -232zM506 1036q-195 0 -301 -146q-107 -148 -107 -362q0 -204 103 -359q102 -153 305 -153q194 0 310 136
t116 376q0 214 -115 362q-113 146 -311 146z" />
    <glyph glyph-name="r" unicode="r" horiz-adv-x="530" 
d="M154 0h-41v1053h41v-260q34 128 136 206t281 78v-41q-205 0 -311 -126q-106 -125 -106 -314v-596z" />
    <glyph glyph-name="s" unicode="s" horiz-adv-x="948" 
d="M799 741q0 151 -91 223q-92 72 -249 72q-151 0 -233 -61q-83 -62 -83 -162q0 -75 29 -119q28 -43 78 -61q62 -22 127 -40l220 -58q143 -38 207 -100q64 -63 64 -167q0 -148 -112 -220q-114 -73 -269 -73q-211 0 -319 94q-107 93 -107 291h41q0 -174 99 -259
q98 -85 286 -85q133 0 237 62q103 61 103 186q0 124 -84 167q-87 45 -227 80q-141 35 -193 51q-56 17 -136 52q-85 37 -85 199q0 102 88 183t269 81q183 0 281 -82q100 -83 100 -254h-41z" />
    <glyph glyph-name="t" unicode="t" horiz-adv-x="493" 
d="M225 1012v-807q0 -104 38 -134q37 -30 104 -30q72 0 90 6v-41q-15 0 -46 -3t-55 -3q-81 0 -127 44q-45 44 -45 153v815h-194v41h194v331h41v-331h238v-41h-238z" />
    <glyph glyph-name="u" unicode="u" 
d="M911 0h-41v260q-34 -127 -133 -206q-98 -79 -250 -79q-166 0 -271 100q-103 99 -103 279v699h41v-693q0 -170 95 -257q94 -87 238 -87q183 0 283 126q100 125 100 315v596h41v-1053z" />
    <glyph glyph-name="v" unicode="v" horiz-adv-x="833" 
d="M813 1053h45l-397 -1053h-51l-435 1053h50l407 -1012z" />
    <glyph glyph-name="w" unicode="w" horiz-adv-x="1402" 
d="M1378 1053h41l-336 -1053h-53l-328 1012l-333 -1012h-58l-327 1053h41l313 -1012l330 1012h63l324 -1012z" />
    <glyph glyph-name="x" unicode="x" horiz-adv-x="833" 
d="M778 1053h49l-385 -508l422 -545h-51l-397 514l-396 -514h-51l422 545l-383 508h53l355 -478z" />
    <glyph glyph-name="y" unicode="y" horiz-adv-x="833" 
d="M815 1053h43l-485 -1268q-38 -97 -100 -122t-179 -25v40q116 0 164 23q47 23 82 113l76 196l-441 1043h45l418 -998z" />
    <glyph glyph-name="z" unicode="z" horiz-adv-x="833" 
d="M823 41v-41h-813v51l738 961h-682v41h725v-52l-738 -960h770z" />
    <glyph glyph-name="braceleft" unicode="{" horiz-adv-x="681" 
d="M471 -362q-81 0 -116 54q-33 52 -33 173v334q0 138 -30 217q-30 81 -118 137v41q64 11 106 111q42 101 42 231v338q0 122 31 172q31 51 118 51h102v-41h-98q-61 0 -87 -47t-26 -172v-336q0 -112 -35 -204q-36 -95 -112 -128q66 -30 107 -125q40 -93 40 -211v-331
q0 -132 26 -178t87 -46h98v-40h-102z" />
    <glyph glyph-name="bar" unicode="|" horiz-adv-x="454" 
d="M207 -35v1532h41v-1532h-41z" />
    <glyph glyph-name="braceright" unicode="}" horiz-adv-x="681" 
d="M211 1497q81 0 116 -54q33 -52 33 -173v-334q0 -138 30 -217q30 -81 118 -137v-41q-64 -11 -106 -111t-42 -231v-338q0 -122 -31 -172q-31 -51 -118 -51h-102v40h98q61 0 87 48q25 46 25 172v335q0 109 36 204t112 128q-66 30 -107 125q-41 96 -41 211v332q0 134 -25 178
q-26 45 -87 45h-98v41h102z" />
    <glyph glyph-name="asciitilde" unicode="~" horiz-adv-x="1228" 
d="M1071 604q-53 -86 -101 -131t-122 -45q-50 0 -112 28q-68 31 -87 38q-83 39 -132 57t-118 18q-66 0 -112 -38q-44 -37 -88 -111l-41 12q44 81 101 129q58 49 140 49q51 0 110 -18t147 -57q91 -40 124 -53t70 -13q54 0 94 39q42 40 86 108z" />
    <glyph glyph-name="nonbreakingspace" unicode="&#xa0;" horiz-adv-x="512" 
 />
    <glyph glyph-name="exclamdown" unicode="&#xa1;" horiz-adv-x="378" 
d="M211 1110v-201h-41v201h41zM211 737v-1099h-41v1099h41z" />
    <glyph glyph-name="cent" unicode="&#xa2;" horiz-adv-x="1138" 
d="M557 1034q-189 0 -292 -151t-103 -355q0 -206 102 -359t293 -153v1018zM598 16h10q147 0 251 96q101 94 118 246h41q-21 -179 -134 -280q-115 -103 -286 -103v-223h-41v223q-207 0 -321 164q-115 165 -115 389q0 220 116 384q115 163 320 163v180h41v-180q166 0 279 -89
t131 -253h-41q-23 147 -122 224q-100 77 -247 77v-1018z" />
    <glyph glyph-name="sterling" unicode="&#xa3;" horiz-adv-x="1138" 
d="M606 748v-41h-305q32 -59 46 -130q16 -80 16 -149q0 -114 -53 -211q-54 -98 -150 -180l4 -4q44 33 96 55q51 21 113 21q55 0 116 -21q85 -29 115 -41q48 -19 95 -31q40 -10 73 -10q91 0 156 40q66 41 157 130l27 -29q-83 -96 -166 -140q-80 -42 -174 -42q-54 0 -105 16
q-62 19 -100 35q-111 38 -139 45t-55 7q-71 0 -132 -26t-124 -77l-37 41q105 89 174 199q68 109 68 223q0 168 -66 279h-156v41h136l-95 189q-49 101 -49 179q0 183 135 282t328 99q220 0 347 -118q128 -119 128 -324l-4 -72h-41q2 22 2 34v27q0 200 -117 306
q-116 106 -315 106q-179 0 -300 -84q-122 -84 -122 -256q0 -94 56 -197l94 -171h323z" />
    <glyph glyph-name="currency" unicode="&#xa4;" horiz-adv-x="1138" 
d="M1030 1186l29 -29l-117 -117q135 -146 135 -344q0 -197 -135 -344l117 -116l-29 -29l-117 117q-148 -136 -344 -136t-344 136l-116 -117l-29 29l117 116q-136 148 -136 344t136 344l-117 117l29 29l116 -117q147 135 344 135q199 0 344 -135zM569 1163q-192 0 -329 -137
q-138 -138 -138 -330q0 -191 138 -329t329 -138q192 0 330 138q137 137 137 329q0 195 -136 331t-331 136z" />
    <glyph glyph-name="yen" unicode="&#xa5;" horiz-adv-x="1138" 
d="M588 416h301v-41h-301v-375h-41v375h-301v41h301v209h-301v41h282l-485 796h45l479 -784l484 784h45l-486 -796h279v-41h-301v-209z" />
    <glyph glyph-name="section" unicode="&#xa7;" horiz-adv-x="1138" 
d="M864 1118q0 160 -81 249t-232 89q-106 0 -192 -55q-87 -55 -87 -180q0 -71 31 -117q29 -43 77 -79q38 -29 158 -98q108 -63 227 -140q117 -76 186 -161q71 -88 71 -208q0 -101 -79 -177q-82 -79 -161 -102q74 -62 98 -119q23 -55 23 -133q0 -136 -98 -204
q-100 -70 -236 -70q-172 0 -265 103q-93 104 -93 294h41q0 -167 76 -261q77 -95 241 -95q143 0 218 75t75 158q0 88 -28 138q-27 48 -112 110q-71 52 -220 145q-159 99 -217 139q-81 55 -124 129q-44 76 -44 169t66 172q65 78 157 112q-47 41 -78 95t-31 129q0 149 104 211
q103 61 220 61q161 0 255 -103q95 -104 95 -276h-41zM643 817q-74 45 -151 89q-95 54 -115 67q-74 -23 -146 -91q-73 -69 -73 -182q0 -66 40 -134q40 -67 132 -128l226 -145q136 -87 187 -125q79 18 159 86q79 67 79 166q0 103 -67 185q-67 83 -271 212z" />
    <glyph glyph-name="dieresis" unicode="&#xa8;" horiz-adv-x="266" 
d="M-47 1208v166h41v-166h-41zM272 1208v166h41v-166h-41z" />
    <glyph glyph-name="copyright" unicode="&#xa9;" horiz-adv-x="1638" 
d="M1174 877q-18 128 -114 198t-224 70q-187 0 -295 -119q-109 -120 -109 -305t111 -310q111 -124 299 -124q116 0 208 73q94 74 124 205h40q-33 -143 -133 -231t-239 -88q-202 0 -327 134q-124 133 -124 339t119 337q118 130 326 130q150 0 254 -82q103 -81 124 -227h-40z
M819 1497q320 0 543 -223t223 -543t-223 -543t-543 -223t-543 223t-223 543t223 543t543 223zM819 6q301 0 513 212t212 513t-212 513t-513 212t-513 -212t-212 -513t212 -513t513 -212z" />
    <glyph glyph-name="ordfeminine" unicode="&#xaa;" horiz-adv-x="614" 
d="M504 1130q-27 -34 -105 -40q-29 -2 -84.5 -7.5t-77.5 -7.5q-82 -7 -141 -39q-55 -30 -55 -112q0 -66 54 -99q52 -32 134 -32q128 0 201 67q74 68 74 172v98zM614 766q-56 0 -83 9t-27 54v84l-4 -14q-46 -147 -271 -147q-99 0 -164 42t-65 130q0 109 70 152q69 42 182 42
h49q128 0 166 23q37 22 37 69q0 88 -47 127t-152 39q-199 0 -221 -172h-41q22 213 262 213q111 0 175 -42q65 -42 65 -140v-389q0 -43 41 -43q9 0 28 4v-41z" />
    <glyph glyph-name="guillemotleft" unicode="&#xab;" horiz-adv-x="720" 
d="M346 248l-211 284v33l211 285v-72l-170 -229l170 -230v-71zM537 248l-211 284v33l211 285v-72l-170 -229l170 -230v-71z" />
    <glyph glyph-name="logicalnot" unicode="&#xac;" horiz-adv-x="1228" 
d="M1090 696h-992v41h1032v-547h-40v506z" />
    <glyph glyph-name="registered" unicode="&#xae;" horiz-adv-x="1638" 
d="M561 1157h289q291 0 291 -237q0 -106 -66 -168q-67 -62 -164 -62l271 -414h-52l-264 410l-63 -2h-201v-408h-41v881zM815 725q121 0 203 39t82 156q0 109 -71 153q-70 43 -183 43h-244v-391h213zM819 1497q320 0 543 -223t223 -543t-223 -543t-543 -223t-543 223
t-223 543t223 543t543 223zM819 6q301 0 513 212t212 513t-212 513t-513 212t-513 -212t-212 -513t212 -513t513 -212z" />
    <glyph glyph-name="degree" unicode="&#xb0;" horiz-adv-x="819" 
d="M410 1376q-101 0 -177 -76q-75 -75 -75 -176q0 -109 73 -182q74 -74 179 -74q108 0 180 74t72 182q0 106 -72 179t-180 73zM410 827q-123 0 -208 85t-85 212q0 122 84 207q84 86 209 86q120 0 206 -86t86 -207q0 -124 -85 -210q-85 -87 -207 -87z" />
    <glyph glyph-name="plusminus" unicode="&#xb1;" horiz-adv-x="1228" 
d="M594 1036h41v-405h495v-41h-495v-406h-41v406h-496v41h496v405zM98 41h1032v-41h-1032v41z" />
    <glyph glyph-name="acute" unicode="&#xb4;" horiz-adv-x="266" 
d="M350 1497l-299 -295h-31l271 295h59z" />
    <glyph glyph-name="mu" unicode="&#xb5;" horiz-adv-x="1138" 
d="M967 0h-41v260q-33 -127 -133 -206t-250 -79q-108 0 -197 47q-88 46 -131 144l-4 -528h-41v1415h39v-693q0 -170 95 -257q94 -87 239 -87q181 0 282 126q101 127 101 315v596h41v-1053z" />
    <glyph glyph-name="paragraph" unicode="&#xb6;" horiz-adv-x="1228" 
d="M1006 1462v-1749h-41v1708h-334v-1708h-41v959q-201 0 -327 113q-128 114 -128 276q0 191 120 296t337 105h414z" />
    <glyph glyph-name="cedilla" unicode="&#xb8;" horiz-adv-x="266" 
d="M-33 -301q61 -21 89 -27q30 -6 61 -6q64 0 112 25q47 24 47 84q0 37 -37 59q-38 23 -75 23q-66 0 -111 -27l-30 20l116 150h41l-84 -115q24 6 34 9q13 4 34 4q67 0 110 -30t43 -93q0 -84 -55 -117t-145 -33q-48 0 -99 15q-14 4 -29.5 8.5t-25 7t-14.5 4.5z" />
    <glyph glyph-name="ordmasculine" unicode="&#xba;" horiz-adv-x="614" 
d="M309 1417q143 0 226 -96q81 -94 81 -234t-81 -237q-82 -98 -228 -98q-142 0 -224 98q-83 100 -83 237q0 141 82 235q83 95 227 95zM309 793q122 0 194 88q72 89 72 206q0 115 -72 202t-194 87q-123 0 -195 -86q-73 -87 -73 -203t73 -206q72 -88 195 -88z" />
    <glyph glyph-name="guillemotright" unicode="&#xbb;" horiz-adv-x="720" 
d="M375 850l211 -285v-33l-211 -284v71l170 230l-170 229v72zM184 850l211 -285v-33l-211 -284v71l170 230l-170 229v72z" />
    <glyph glyph-name="questiondown" unicode="&#xbf;" 
d="M952 100q0 -221 -115 -354t-329 -133q-176 0 -290 90t-114 250q0 132 55 211q52 75 144 155q115 110 160 196q43 82 43 222h41q0 -138 -41 -229q-40 -89 -129 -175l-144 -138q-88 -110 -88 -242q0 -140 101 -220q100 -79 262 -79q199 0 301 120t102 326h41zM549 1110
v-201h-41v201h41z" />
    <glyph glyph-name="Agrave" unicode="&#xc0;" horiz-adv-x="1177" 
d="M946 522l-348 899l-365 -899h713zM217 481l-194 -481h-48l594 1462h54l577 -1462h-45l-192 481h-746zM379 1862h59l256 -295h-30z" />
    <glyph glyph-name="Aacute" unicode="&#xc1;" horiz-adv-x="1177" 
d="M946 522l-348 899l-365 -899h713zM217 481l-194 -481h-48l594 1462h54l577 -1462h-45l-192 481h-746zM807 1862l-299 -295h-31l271 295h59z" />
    <glyph glyph-name="Acircumflex" unicode="&#xc2;" horiz-adv-x="1177" 
d="M946 522l-348 899l-365 -899h713zM217 481l-194 -481h-48l594 1462h54l577 -1462h-45l-192 481h-746zM797 1577l-211 252l-203 -252h-41l231 285h31l234 -285h-41z" />
    <glyph glyph-name="Atilde" unicode="&#xc3;" horiz-adv-x="1177" 
d="M946 522l-348 899l-365 -899h713zM217 481l-194 -481h-48l594 1462h54l577 -1462h-45l-192 481h-746zM319 1597q0 56 45 110q43 52 95 52q45 0 138 -59q95 -60 122 -60q46 0 73 34t27 79h41q0 -64 -37 -108q-38 -46 -104 -46q-49 0 -136 60q-86 59 -124 59q-39 0 -69 -40
t-30 -81h-41z" />
    <glyph glyph-name="Adieresis" unicode="&#xc4;" horiz-adv-x="1177" 
d="M946 522l-348 899l-365 -899h713zM217 481l-194 -481h-48l594 1462h54l577 -1462h-45l-192 481h-746zM410 1573v166h41v-166h-41zM729 1573v166h41v-166h-41z" />
    <glyph glyph-name="Aring" unicode="&#xc5;" horiz-adv-x="1177" 
d="M946 522l-348 899l-365 -899h713zM217 481l-194 -481h-48l594 1462h54l577 -1462h-45l-192 481h-746zM590 1507q-73 0 -127 54q-53 53 -53 127t53 127t127 53t127 -53t53 -127t-53 -127q-54 -54 -127 -54zM590 1827q-57 0 -98 -41t-41 -98q0 -58 41 -99t98 -41t98 41
t41 99q0 57 -41 98t-98 41z" />
    <glyph glyph-name="AE" unicode="&#xc6;" horiz-adv-x="1744" 
d="M317 561l-297 -561h-45l775 1462h960v-41h-803v-639h738v-41h-738v-700h803v-41h-844v561h-549zM770 1425l-432 -823h528v823h-96z" />
    <glyph glyph-name="Ccedilla" unicode="&#xc7;" horiz-adv-x="1402" 
d="M1282 1024q-15 172 -164 301q-151 131 -379 131q-329 0 -487 -230q-160 -232 -160 -507q0 -295 168 -504t453 -209q253 0 410 157q158 158 192 410h41q-39 -275 -204 -441q-165 -167 -429 -167l-59 -80q18 5 33 9q13 4 34 4q67 0 111 -30q43 -30 43 -93q0 -84 -56 -117
q-55 -33 -145 -33q-47 0 -98 15q-14 4 -29.5 8.5t-25.5 7t-15 4.5l19 39q61 -21 89 -27q30 -6 60 -6q65 0 113 25q47 24 47 84q0 36 -38 59t-75 23q-65 0 -110 -27l-31 20l90 117q-278 0 -454 213q-175 212 -175 539q0 310 171 544t517 234q265 0 424 -156
q160 -157 160 -317h-41z" />
    <glyph glyph-name="Egrave" unicode="&#xc8;" horiz-adv-x="1099" 
d="M152 41h938v-41h-979v1462h970v-41h-929v-639h874v-41h-874v-700zM340 1862h59l256 -295h-30z" />
    <glyph glyph-name="Eacute" unicode="&#xc9;" horiz-adv-x="1099" 
d="M152 41h938v-41h-979v1462h970v-41h-929v-639h874v-41h-874v-700zM768 1862l-299 -295h-31l271 295h59z" />
    <glyph glyph-name="Ecircumflex" unicode="&#xca;" horiz-adv-x="1099" 
d="M152 41h938v-41h-979v1462h970v-41h-929v-639h874v-41h-874v-700zM758 1577l-211 252l-203 -252h-41l232 285h30l234 -285h-41z" />
    <glyph glyph-name="Edieresis" unicode="&#xcb;" horiz-adv-x="1099" 
d="M152 41h938v-41h-979v1462h970v-41h-929v-639h874v-41h-874v-700zM371 1573v166h41v-166h-41zM690 1573v166h41v-166h-41z" />
    <glyph glyph-name="Igrave" unicode="&#xcc;" horiz-adv-x="262" 
d="M111 1462h41v-1462h-41v1462zM-80 1862h60l256 -295h-31z" />
    <glyph glyph-name="Iacute" unicode="&#xcd;" horiz-adv-x="262" 
d="M111 1462h41v-1462h-41v1462zM348 1862l-299 -295h-31l271 295h59z" />
    <glyph glyph-name="Icircumflex" unicode="&#xce;" horiz-adv-x="262" 
d="M111 1462h41v-1462h-41v1462zM338 1577l-211 252l-203 -252h-41l232 285h30l234 -285h-41z" />
    <glyph glyph-name="Idieresis" unicode="&#xcf;" horiz-adv-x="262" 
d="M111 1462h41v-1462h-41v1462zM-49 1573v166h41v-166h-41zM270 1573v166h41v-166h-41z" />
    <glyph glyph-name="Ntilde" unicode="&#xd1;" horiz-adv-x="1327" 
d="M111 1462h61l999 -1411l5 1411h41v-1462h-62l-999 1411l-4 -1411h-41v1462zM393 1597q0 57 44 110q43 52 95 52q46 0 139 -59q95 -60 122 -60q45 0 72 34q28 36 28 79h41q0 -64 -37 -108q-38 -46 -104 -46q-50 0 -137 60q-86 59 -124 59t-68 -40t-30 -81h-41z" />
    <glyph glyph-name="Ograve" unicode="&#xd2;" horiz-adv-x="1476" 
d="M739 6q290 0 462 202q171 201 171 523t-171 523q-172 202 -462 202q-289 0 -461 -202t-172 -523t172 -523t461 -202zM739 1497q317 0 496 -219q178 -218 178 -547t-178 -547q-179 -219 -496 -219t-495 219q-178 218 -178 547t178 547q178 219 495 219zM528 1862h60
l256 -295h-31z" />
    <glyph glyph-name="Oacute" unicode="&#xd3;" horiz-adv-x="1476" 
d="M739 6q290 0 462 202q171 201 171 523t-171 523q-172 202 -462 202q-289 0 -461 -202t-172 -523t172 -523t461 -202zM739 1497q317 0 496 -219q178 -218 178 -547t-178 -547q-179 -219 -496 -219t-495 219q-178 218 -178 547t178 547q178 219 495 219zM956 1862
l-299 -295h-30l270 295h59z" />
    <glyph glyph-name="Ocircumflex" unicode="&#xd4;" horiz-adv-x="1476" 
d="M739 6q290 0 462 202q171 201 171 523t-171 523q-172 202 -462 202q-289 0 -461 -202t-172 -523t172 -523t461 -202zM739 1497q317 0 496 -219q178 -218 178 -547t-178 -547q-179 -219 -496 -219t-495 219q-178 218 -178 547t178 547q178 219 495 219zM946 1577l-211 252
l-203 -252h-40l231 285h31l233 -285h-41z" />
    <glyph glyph-name="Otilde" unicode="&#xd5;" horiz-adv-x="1476" 
d="M739 6q290 0 462 202q171 201 171 523t-171 523q-172 202 -462 202q-289 0 -461 -202t-172 -523t172 -523t461 -202zM739 1497q317 0 496 -219q178 -218 178 -547t-178 -547q-179 -219 -496 -219t-495 219q-178 218 -178 547t178 547q178 219 495 219zM469 1597
q0 57 44 110q43 52 95 52q45 0 138 -59q95 -60 122 -60q46 0 73 34q28 36 28 79h41q0 -64 -37 -108q-38 -46 -105 -46q-49 0 -136 60q-86 59 -124 59t-68 -40t-30 -81h-41z" />
    <glyph glyph-name="Odieresis" unicode="&#xd6;" horiz-adv-x="1476" 
d="M739 6q290 0 462 202q171 201 171 523t-171 523q-172 202 -462 202q-289 0 -461 -202t-172 -523t172 -523t461 -202zM739 1497q317 0 496 -219q178 -218 178 -547t-178 -547q-179 -219 -496 -219t-495 219q-178 218 -178 547t178 547q178 219 495 219zM559 1573v166h41
v-166h-41zM879 1573v166h41v-166h-41z" />
    <glyph glyph-name="Oslash" unicode="&#xd8;" horiz-adv-x="1476" 
d="M1190 1264q-84 93 -197 142q-115 50 -254 50q-289 0 -461 -202t-172 -523q0 -149 39 -275q40 -129 115 -223zM287 203q85 -99 194 -147q114 -50 258 -50q290 0 462 202q171 201 171 523q0 306 -155 500zM231 201q-78 99 -122 238q-43 136 -43 292q0 329 178 547
q178 219 495 219q156 0 273 -52q119 -53 207 -151l120 133l31 -24l-125 -139q168 -208 168 -533q0 -329 -178 -547q-179 -219 -496 -219q-150 0 -273 53q-122 53 -208 154l-145 -162l-31 25z" />
    <glyph glyph-name="Ugrave" unicode="&#xd9;" horiz-adv-x="1294" 
d="M1143 1462h41v-917q0 -286 -138 -433t-399 -147q-536 0 -536 580v917h41v-917q0 -267 122 -402q123 -137 373 -137t373 136t123 403v917zM436 1862h60l256 -295h-31z" />
    <glyph glyph-name="Uacute" unicode="&#xda;" horiz-adv-x="1294" 
d="M1143 1462h41v-917q0 -286 -138 -433t-399 -147q-536 0 -536 580v917h41v-917q0 -267 122 -402q123 -137 373 -137t373 136t123 403v917zM864 1862l-299 -295h-30l270 295h59z" />
    <glyph glyph-name="Ucircumflex" unicode="&#xdb;" horiz-adv-x="1294" 
d="M1143 1462h41v-917q0 -286 -138 -433t-399 -147q-536 0 -536 580v917h41v-917q0 -267 122 -402q123 -137 373 -137t373 136t123 403v917zM854 1577l-211 252l-203 -252h-41l232 285h31l233 -285h-41z" />
    <glyph glyph-name="Udieresis" unicode="&#xdc;" horiz-adv-x="1294" 
d="M1143 1462h41v-917q0 -286 -138 -433t-399 -147q-536 0 -536 580v917h41v-917q0 -267 122 -402q123 -137 373 -137t373 136t123 403v917zM467 1573v166h41v-166h-41zM786 1573v166h41v-166h-41z" />
    <glyph glyph-name="germandbls" unicode="&#xdf;" horiz-adv-x="985" 
d="M414 834q178 0 286 72q109 73 109 243q0 137 -95 217t-241 80q-120 0 -221 -64q-98 -62 -98 -249v-1133h-41v1139q0 181 104 264q105 84 256 84q156 0 266 -91q111 -91 111 -247q0 -131 -66 -220q-67 -89 -194 -110q171 -18 253 -120q83 -103 83 -269q0 -208 -118 -319
t-394 -111v41q231 0 351 84t120 305q0 210 -121 286q-122 77 -350 77v41z" />
    <glyph glyph-name="agrave" unicode="&#xe0;" horiz-adv-x="985" 
d="M819 618q-30 -41 -116 -62t-295 -21q-147 0 -235 -59q-87 -58 -87 -216q0 -102 74 -173t233 -71q198 0 312 121t114 287v194zM111 727q0 155 105 253q104 97 296 97q156 0 252 -69t96 -232v-670q0 -39 24 -54t60 -15h25q15 4 24 4v-41h-30q-88 0 -116 26t-28 76v138
q-38 -110 -151 -187q-114 -78 -271 -78q-159 0 -256 74q-96 74 -96 211q0 177 102 246t261 69q238 0 325 29q86 29 86 141q0 130 -59 210q-60 81 -248 81q-166 0 -263 -81t-97 -228h-41zM283 1452h59l256 -295h-31z" />
    <glyph glyph-name="aacute" unicode="&#xe1;" horiz-adv-x="985" 
d="M819 618q-30 -41 -116 -62t-295 -21q-147 0 -235 -59q-87 -58 -87 -216q0 -102 74 -173t233 -71q198 0 312 121t114 287v194zM111 727q0 155 105 253q104 97 296 97q156 0 252 -69t96 -232v-670q0 -39 24 -54t60 -15h25q15 4 24 4v-41h-30q-88 0 -116 26t-28 76v138
q-38 -110 -151 -187q-114 -78 -271 -78q-159 0 -256 74q-96 74 -96 211q0 177 102 246t261 69q238 0 325 29q86 29 86 141q0 130 -59 210q-60 81 -248 81q-166 0 -263 -81t-97 -228h-41zM711 1452l-299 -295h-31l270 295h60z" />
    <glyph glyph-name="acircumflex" unicode="&#xe2;" horiz-adv-x="985" 
d="M819 618q-30 -41 -116 -62t-295 -21q-147 0 -235 -59q-87 -58 -87 -216q0 -102 74 -173t233 -71q198 0 312 121t114 287v194zM111 727q0 155 105 253q104 97 296 97q156 0 252 -69t96 -232v-670q0 -39 24 -54t60 -15h25q15 4 24 4v-41h-30q-88 0 -116 26t-28 76v138
q-38 -110 -151 -187q-114 -78 -271 -78q-159 0 -256 74q-96 74 -96 211q0 177 102 246t261 69q238 0 325 29q86 29 86 141q0 130 -59 210q-60 81 -248 81q-166 0 -263 -81t-97 -228h-41zM700 1167l-211 252l-202 -252h-41l231 285h31l233 -285h-41z" />
    <glyph glyph-name="atilde" unicode="&#xe3;" horiz-adv-x="985" 
d="M819 618q-30 -41 -116 -62t-295 -21q-147 0 -235 -59q-87 -58 -87 -216q0 -102 74 -173t233 -71q198 0 312 121t114 287v194zM111 727q0 155 105 253q104 97 296 97q156 0 252 -69t96 -232v-670q0 -39 24 -54t60 -15h25q15 4 24 4v-41h-30q-88 0 -116 26t-28 76v138
q-38 -110 -151 -187q-114 -78 -271 -78q-159 0 -256 74q-96 74 -96 211q0 177 102 246t261 69q238 0 325 29q86 29 86 141q0 130 -59 210q-60 81 -248 81q-166 0 -263 -81t-97 -228h-41zM223 1188q0 56 44 109t95 53q44 0 139 -60q93 -59 122 -59q45 0 72 34q28 36 28 78h41
q0 -64 -37 -108q-37 -45 -104 -45q-51 0 -137 59q-87 60 -124 60q-38 0 -68 -40q-30 -41 -30 -81h-41z" />
    <glyph glyph-name="adieresis" unicode="&#xe4;" horiz-adv-x="985" 
d="M819 618q-30 -41 -116 -62t-295 -21q-147 0 -235 -59q-87 -58 -87 -216q0 -102 74 -173t233 -71q198 0 312 121t114 287v194zM111 727q0 155 105 253q104 97 296 97q156 0 252 -69t96 -232v-670q0 -39 24 -54t60 -15h25q15 4 24 4v-41h-30q-88 0 -116 26t-28 76v138
q-38 -110 -151 -187q-114 -78 -271 -78q-159 0 -256 74q-96 74 -96 211q0 177 102 246t261 69q238 0 325 29q86 29 86 141q0 130 -59 210q-60 81 -248 81q-166 0 -263 -81t-97 -228h-41zM313 1163v166h41v-166h-41zM633 1163v166h41v-166h-41z" />
    <glyph glyph-name="aring" unicode="&#xe5;" horiz-adv-x="985" 
d="M819 618q-30 -41 -116 -62t-295 -21q-147 0 -235 -59q-87 -58 -87 -216q0 -102 74 -173t233 -71q198 0 312 121t114 287v194zM111 727q0 155 105 253q104 97 296 97q156 0 252 -69t96 -232v-670q0 -39 24 -54t60 -15h25q15 4 24 4v-41h-30q-88 0 -116 26t-28 76v138
q-38 -110 -151 -187q-114 -78 -271 -78q-159 0 -256 74q-96 74 -96 211q0 177 102 246t261 69q238 0 325 29q86 29 86 141q0 130 -59 210q-60 81 -248 81q-166 0 -263 -81t-97 -228h-41zM494 1200q-74 0 -127 53q-54 54 -54 127t54 127t127 54t127 -54q53 -53 53 -127
t-53 -127t-127 -53zM494 1520q-58 0 -99 -41t-41 -99q0 -57 41 -98t99 -41q57 0 98 41t41 98q0 58 -41 99t-98 41z" />
    <glyph glyph-name="ae" unicode="&#xe6;" horiz-adv-x="1820" 
d="M1714 559q0 207 -105 342t-304 135q-196 0 -310 -129t-114 -348h833zM840 618q-30 -41 -116 -62t-296 -21q-146 0 -234 -59t-88 -216q0 -102 74 -173t234 -71q197 0 311 121q115 123 115 287v194zM131 727q0 155 106 253q104 97 295 97q159 0 253 -70q96 -72 96 -237
q47 136 156 222q109 85 268 85q225 0 337 -158q113 -160 113 -401h-874q0 -226 103 -363q104 -139 316 -139q162 0 275 92q112 91 133 257h41q-17 -174 -139 -282q-123 -108 -310 -108q-170 0 -280 88q-111 88 -154 254q-33 -159 -156 -249q-127 -93 -292 -93
q-159 0 -256 74q-96 74 -96 211q0 177 102 246t260 69q239 0 326 29q86 29 86 141q0 129 -60 210t-248 81q-166 0 -263 -81t-97 -228h-41z" />
    <glyph glyph-name="ccedilla" unicode="&#xe7;" 
d="M961 358q-16 -173 -131 -277t-287 -104l-68 -92q24 6 34 9q13 4 34 4q67 0 110 -30t43 -93q0 -84 -55 -117t-145 -33q-48 0 -99 15q-14 4 -29.5 8.5t-25 7t-14.5 4.5l18 39q61 -21 89 -27q30 -6 61 -6q64 0 112 25q47 24 47 84q0 36 -38 59t-74 23q-66 0 -111 -27l-31 20
l101 130q-202 0 -320 152q-119 154 -119 372q0 245 125 409t367 164q154 0 266 -91q113 -92 131 -253h-41q-23 147 -121 225q-99 78 -235 78q-232 0 -341 -158q-110 -160 -110 -374q0 -204 113 -346t313 -142q160 0 275 95t115 247h41z" />
    <glyph glyph-name="egrave" unicode="&#xe8;" 
d="M932 559q0 206 -109 342q-108 135 -307 135q-175 0 -300 -131q-124 -130 -124 -346h840zM92 518q0 -228 101 -365t315 -137q166 0 275 90q110 90 137 259h41q-21 -180 -145 -284q-126 -106 -304 -106q-232 0 -347 151q-114 150 -114 400q0 252 135 402q134 149 326 149
q229 0 345 -161t116 -398h-881zM301 1452h59l256 -295h-30z" />
    <glyph glyph-name="eacute" unicode="&#xe9;" 
d="M932 559q0 206 -109 342q-108 135 -307 135q-175 0 -300 -131q-124 -130 -124 -346h840zM92 518q0 -228 101 -365t315 -137q166 0 275 90q110 90 137 259h41q-21 -180 -145 -284q-126 -106 -304 -106q-232 0 -347 151q-114 150 -114 400q0 252 135 402q134 149 326 149
q229 0 345 -161t116 -398h-881zM729 1452l-299 -295h-31l271 295h59z" />
    <glyph glyph-name="ecircumflex" unicode="&#xea;" 
d="M932 559q0 206 -109 342q-108 135 -307 135q-175 0 -300 -131q-124 -130 -124 -346h840zM92 518q0 -228 101 -365t315 -137q166 0 275 90q110 90 137 259h41q-21 -180 -145 -284q-126 -106 -304 -106q-232 0 -347 151q-114 150 -114 400q0 252 135 402q134 149 326 149
q229 0 345 -161t116 -398h-881zM719 1167l-211 252l-203 -252h-41l232 285h30l234 -285h-41z" />
    <glyph glyph-name="edieresis" unicode="&#xeb;" 
d="M932 559q0 206 -109 342q-108 135 -307 135q-175 0 -300 -131q-124 -130 -124 -346h840zM92 518q0 -228 101 -365t315 -137q166 0 275 90q110 90 137 259h41q-21 -180 -145 -284q-126 -106 -304 -106q-232 0 -347 151q-114 150 -114 400q0 252 135 402q134 149 326 149
q229 0 345 -161t116 -398h-881zM332 1163v166h41v-166h-41zM651 1163v166h41v-166h-41z" />
    <glyph glyph-name="igrave" unicode="&#xec;" horiz-adv-x="266" 
d="M113 0v1053h41v-1053h-41zM-78 1452h60l256 -295h-31z" />
    <glyph glyph-name="iacute" unicode="&#xed;" horiz-adv-x="266" 
d="M113 0v1053h41v-1053h-41zM350 1452l-299 -295h-31l271 295h59z" />
    <glyph glyph-name="icircumflex" unicode="&#xee;" horiz-adv-x="266" 
d="M113 0v1053h41v-1053h-41zM340 1167l-211 252l-203 -252h-41l232 285h30l234 -285h-41z" />
    <glyph glyph-name="idieresis" unicode="&#xef;" horiz-adv-x="266" 
d="M113 0v1053h41v-1053h-41zM-47 1163v166h41v-166h-41zM272 1163v166h41v-166h-41z" />
    <glyph glyph-name="ntilde" unicode="&#xf1;" 
d="M113 1053h41v-260q34 125 133 205q98 79 250 79q167 0 271 -99q103 -99 103 -280v-698h-41v692q0 170 -95 257q-94 87 -238 87q-183 0 -283 -126q-100 -125 -100 -314v-596h-41v1053zM242 1188q0 56 44 109t95 53q43 0 138 -60q93 -59 122 -59q46 0 73 34q27 35 27 78h41
q0 -64 -37 -108q-37 -45 -104 -45q-50 0 -136 59q-87 60 -124 60q-39 0 -69 -40q-29 -39 -29 -81h-41z" />
    <glyph glyph-name="ograve" unicode="&#xf2;" horiz-adv-x="1062" 
d="M532 1077q222 0 348 -161q126 -160 126 -390t-127 -390q-128 -161 -349 -161q-220 0 -347 160q-126 159 -126 391q0 230 126 390q126 161 349 161zM532 16q204 0 318 149q115 150 115 361q0 209 -116 360q-115 150 -317 150q-203 0 -318 -149q-116 -151 -116 -361
q0 -209 116 -360q116 -150 318 -150zM322 1452h59l256 -295h-31z" />
    <glyph glyph-name="oacute" unicode="&#xf3;" horiz-adv-x="1062" 
d="M532 1077q222 0 348 -161q126 -160 126 -390t-127 -390q-128 -161 -349 -161q-220 0 -347 160q-126 159 -126 391q0 230 126 390q126 161 349 161zM532 16q204 0 318 149q115 150 115 361q0 209 -116 360q-115 150 -317 150q-203 0 -318 -149q-116 -151 -116 -361
q0 -209 116 -360q116 -150 318 -150zM750 1452l-299 -295h-31l270 295h60z" />
    <glyph glyph-name="ocircumflex" unicode="&#xf4;" horiz-adv-x="1062" 
d="M532 1077q222 0 348 -161q126 -160 126 -390t-127 -390q-128 -161 -349 -161q-220 0 -347 160q-126 159 -126 391q0 230 126 390q126 161 349 161zM532 16q204 0 318 149q115 150 115 361q0 209 -116 360q-115 150 -317 150q-203 0 -318 -149q-116 -151 -116 -361
q0 -209 116 -360q116 -150 318 -150zM739 1167l-211 252l-202 -252h-41l231 285h31l233 -285h-41z" />
    <glyph glyph-name="otilde" unicode="&#xf5;" horiz-adv-x="1062" 
d="M532 1077q222 0 348 -161q126 -160 126 -390t-127 -390q-128 -161 -349 -161q-220 0 -347 160q-126 159 -126 391q0 230 126 390q126 161 349 161zM532 16q204 0 318 149q115 150 115 361q0 209 -116 360q-115 150 -317 150q-203 0 -318 -149q-116 -151 -116 -361
q0 -209 116 -360q116 -150 318 -150zM262 1188q0 56 44 109t95 53q45 0 139 -60q93 -59 122 -59q45 0 72 34q28 36 28 78h41q0 -64 -37 -108q-38 -45 -104 -45q-51 0 -137 59q-87 60 -124 60q-38 0 -68 -40q-30 -41 -30 -81h-41z" />
    <glyph glyph-name="odieresis" unicode="&#xf6;" horiz-adv-x="1062" 
d="M532 1077q222 0 348 -161q126 -160 126 -390t-127 -390q-128 -161 -349 -161q-220 0 -347 160q-126 159 -126 391q0 230 126 390q126 161 349 161zM532 16q204 0 318 149q115 150 115 361q0 209 -116 360q-115 150 -317 150q-203 0 -318 -149q-116 -151 -116 -361
q0 -209 116 -360q116 -150 318 -150zM352 1163v166h41v-166h-41zM672 1163v166h41v-166h-41z" />
    <glyph glyph-name="divide" unicode="&#xf7;" horiz-adv-x="1228" 
d="M98 498v41h1032v-41h-1032zM530 952q0 35 25 60q24 24 59 24q36 0 60 -24t24 -60q0 -39 -19 -61q-20 -23 -65 -23q-41 0 -62 24q-22 25 -22 60zM530 84q0 34 25 59t59 25q35 0 60 -25q24 -24 24 -59q0 -39 -19 -61q-20 -23 -65 -23q-41 0 -62 24q-22 25 -22 60z" />
    <glyph glyph-name="oslash" unicode="&#xf8;" horiz-adv-x="1062" 
d="M844 889q-52 68 -133 108q-79 39 -179 39q-203 0 -318 -149q-116 -151 -116 -361q0 -186 90 -323zM213 170q55 -74 135 -114q79 -40 184 -40q204 0 318 149q115 150 115 361q0 86 -25 175q-23 83 -72 155zM967 1016l28 -29l-96 -100q107 -148 107 -361q0 -230 -127 -390
q-128 -161 -349 -161q-110 0 -197 42q-89 43 -151 120l-116 -121l-29 29l123 127q-48 67 -76 163q-27 93 -27 191q0 230 126 390q126 161 349 161q110 0 194 -40q87 -41 148 -117z" />
    <glyph glyph-name="ugrave" unicode="&#xf9;" 
d="M911 0h-41v260q-34 -127 -133 -206q-98 -79 -250 -79q-166 0 -271 100q-103 99 -103 279v699h41v-693q0 -170 95 -257q94 -87 238 -87q183 0 283 126q100 125 100 315v596h41v-1053zM301 1452h59l256 -295h-30z" />
    <glyph glyph-name="uacute" unicode="&#xfa;" 
d="M911 0h-41v260q-34 -127 -133 -206q-98 -79 -250 -79q-166 0 -271 100q-103 99 -103 279v699h41v-693q0 -170 95 -257q94 -87 238 -87q183 0 283 126q100 125 100 315v596h41v-1053zM729 1452l-299 -295h-31l271 295h59z" />
    <glyph glyph-name="ucircumflex" unicode="&#xfb;" 
d="M911 0h-41v260q-34 -127 -133 -206q-98 -79 -250 -79q-166 0 -271 100q-103 99 -103 279v699h41v-693q0 -170 95 -257q94 -87 238 -87q183 0 283 126q100 125 100 315v596h41v-1053zM719 1167l-211 252l-203 -252h-41l232 285h30l234 -285h-41z" />
    <glyph glyph-name="udieresis" unicode="&#xfc;" 
d="M911 0h-41v260q-34 -127 -133 -206q-98 -79 -250 -79q-166 0 -271 100q-103 99 -103 279v699h41v-693q0 -170 95 -257q94 -87 238 -87q183 0 283 126q100 125 100 315v596h41v-1053zM332 1163v166h41v-166h-41zM651 1163v166h41v-166h-41z" />
    <glyph glyph-name="ydieresis" unicode="&#xff;" horiz-adv-x="833" 
d="M815 1053h43l-485 -1268q-38 -97 -100 -122t-179 -25v40q116 0 164 23q47 23 82 113l76 196l-441 1043h45l418 -998zM238 1208v166h41v-166h-41zM557 1208v166h41v-166h-41z" />
    <glyph glyph-name="dotlessi" unicode="&#x131;" horiz-adv-x="266" 
d="M113 0v1053h41v-1053h-41z" />
    <glyph glyph-name="OE" unicode="&#x152;" horiz-adv-x="2086" 
d="M1933 782v-41h-749v-700h848v-41h-889v133q-83 -84 -187 -126q-105 -42 -215 -42q-319 0 -497 217t-178 541q0 325 177 550q176 224 498 224q129 0 226 -38q95 -37 176 -130v133h889v-41h-848v-639h749zM1143 1276q-91 95 -184 138q-92 42 -218 42q-289 0 -462 -200
t-173 -533q0 -316 172 -517q171 -200 463 -200q107 0 213 44q104 43 189 143v1083z" />
    <glyph glyph-name="oe" unicode="&#x153;" horiz-adv-x="1822" 
d="M1712 559q0 214 -94 345q-94 132 -293 132q-201 0 -298 -130t-97 -347h782zM498 1036q-199 0 -295 -147q-97 -149 -97 -363q0 -213 97 -362q97 -148 295 -148q208 0 300 143q91 142 91 367q0 222 -93 366t-298 144zM930 518q0 -248 96 -375t297 -127q167 0 258 94
q90 93 117 244h41q-28 -174 -134 -277q-105 -102 -282 -102q-173 0 -281 91q-107 91 -131 256q-39 -164 -141 -255q-103 -92 -272 -92q-217 0 -325 161q-107 159 -107 390q0 230 105 390q105 161 327 161q166 0 275 -99t132 -261q33 163 135 262q101 98 283 98
q214 0 322 -151q108 -152 108 -377v-31h-823z" />
    <glyph glyph-name="Ydieresis" unicode="&#x178;" horiz-adv-x="1101" 
d="M1114 1462h49l-592 -846v-616h-41v616l-591 846h51l561 -803zM371 1573v166h41v-166h-41zM690 1573v166h41v-166h-41z" />
    <glyph glyph-name="florin" unicode="&#x192;" horiz-adv-x="1138" 
d="M387 -113q-21 -112 -83 -180q-63 -69 -175 -69q-22 0 -54 2q-20 1 -48 10l10 41q47 -13 86 -13q95 0 148 57q52 57 73 161l186 946h-243l8 41h244l79 399q22 110 92 163q68 52 179 52q32 0 58 -2q19 -1 54 -12l-8 -39l-54 8q-24 4 -54 4q-99 0 -151 -43q-53 -44 -75 -153
l-75 -377h260l-8 -41h-261z" />
    <glyph glyph-name="hungarumlaut" unicode="&#x2ba;" horiz-adv-x="266" 
d="M238 1497l-299 -295h-31l270 295h60zM545 1497l-299 -295h-31l270 295h60z" />
    <glyph glyph-name="caron" unicode="&#x2c7;" horiz-adv-x="266" 
d="M-74 1497l211 -252l203 252h41l-231 -285h-31l-234 285h41z" />
    <glyph glyph-name="macron" unicode="&#x2c9;" horiz-adv-x="266" 
d="M371 1286h-475v41h475v-41z" />
    <glyph glyph-name="breve" unicode="&#x2d8;" horiz-adv-x="266" 
d="M-78 1497q10 -82 66 -130t139 -48q93 0 151 45q59 45 66 133h41q-12 -104 -82 -162q-69 -57 -176 -57q-99 0 -166 61q-68 62 -80 158h41z" />
    <glyph glyph-name="dotaccent" unicode="&#x2d9;" horiz-adv-x="266" 
d="M154 1374v-166h-41v166h41z" />
    <glyph glyph-name="ring" unicode="&#x2da;" horiz-adv-x="266" 
d="M133 1200q-74 0 -127 53t-53 127t53 127q54 54 127 54t127 -54q53 -53 53 -127t-53 -127t-127 -53zM133 1520q-57 0 -98 -41t-41 -99q0 -57 41 -98t98 -41t98 41t41 98q0 58 -41 99t-98 41z" />
    <glyph glyph-name="ogonek" unicode="&#x2db;" horiz-adv-x="266" 
d="M225 0q-119 -90 -167 -148q-50 -61 -50 -110q0 -34 29 -61t84 -27q57 0 96 18q40 18 62 45l34 -24q-40 -45 -88 -62q-50 -18 -104 -18q-73 0 -114 38q-40 37 -40 89q0 66 55 130q53 62 144 130h59z" />
    <glyph glyph-name="circumflex" unicode="&#x302;" horiz-adv-x="266" 
d="M340 1212l-211 252l-203 -252h-41l232 285h30l234 -285h-41z" />
    <glyph glyph-name="tilde" unicode="&#x303;" horiz-adv-x="266" 
d="M-137 1233q0 56 44 109t95 53q44 0 138 -60q93 -59 122 -59q46 0 73 34t27 79h41q0 -66 -36 -109q-37 -45 -105 -45q-50 0 -136 59q-87 60 -124 60q-39 0 -69 -40q-29 -39 -29 -81h-41z" />
    <glyph glyph-name="summation" unicode="&#x3a3;" horiz-adv-x="1460" 
d="M1266 1317l30 -264h-90q-66 216 -174 295q-107 79 -346 79h-270l645 -882l-705 -807h383q251 0 354 64t169 239h92l-62 -266l-4 -15q-46 -202 -227 -202h-987l796 913l-768 1053h942q132 0 168 -31q36 -28 54 -176z" />
    <glyph glyph-name="Omega" unicode="&#x3a9;" horiz-adv-x="1572" 
d="M1214 184q100 0 140 39q41 39 41 137h47v-360h-557v369q158 30 251 156t93 311q0 218 -121 345q-122 128 -322 128q-199 0 -321 -128q-121 -127 -121 -345q0 -186 91 -310t253 -157v-369h-557v360h47q0 -98 39 -137t141 -39h252v121q-241 43 -374 182q-134 140 -134 349
q0 246 190 397q188 149 494 149t495 -150t189 -396q0 -204 -131 -344q-132 -141 -376 -187v-121h251z" />
    <glyph glyph-name="pi" unicode="&#x3c0;" horiz-adv-x="1124" 
d="M827 764l-2 -49l-6 -307v-82q0 -172 18 -215t62 -43q57 0 84 59q35 64 35 182h51v-10q0 -163 -53 -242q-52 -77 -164 -77q-116 0 -163 81q-48 83 -48 336l2 160l6 213l-102 2l-158 4q0 -477 -47 -638q-46 -158 -164 -158q-72 0 -107 59q-36 60 -36 176v39h49
q0 -56 19 -81q20 -26 57 -26q85 0 111 97q25 93 37 226q11 120 11 306h-45q-78 0 -121 -27q-45 -28 -57 -81h-47q0 69 21 117q22 50 74 92q53 43 231 43l209 -7l311 -6q69 0 101 15q33 16 34 43l47 2q0 -109 -48 -157t-152 -48h-29z" />
    <glyph glyph-name="endash" unicode="&#x2013;" 
d="M0 569h1024v-41h-1024v41z" />
    <glyph glyph-name="emdash" unicode="&#x2014;" horiz-adv-x="2048" 
d="M2048 528h-2048v41h2048v-41z" />
    <glyph glyph-name="quoteleft" unicode="&#x2018;" horiz-adv-x="342" 
d="M150 1001v242q0 111 17 149q18 40 75 70v-41q-52 -34 -52 -178v-242h-40z" />
    <glyph glyph-name="quoteright" unicode="&#x2019;" horiz-adv-x="342" 
d="M193 1462v-241q0 -109 -18 -149q-18 -41 -75 -71v41q52 34 52 179v241h41z" />
    <glyph glyph-name="quotesinglbase" unicode="&#x201a;" horiz-adv-x="342" 
d="M190 201v-201q0 -100 -19 -154q-19 -55 -73 -90v41q52 50 52 203v201h40z" />
    <glyph glyph-name="quotedblleft" unicode="&#x201c;" horiz-adv-x="569" 
d="M170 1001v242q0 111 17 149q18 40 75 70v-41q-51 -33 -51 -178v-242h-41zM375 1001v242q0 111 17 149q18 40 75 70v-41q-51 -33 -51 -178v-242h-41z" />
    <glyph glyph-name="quotedblright" unicode="&#x201d;" horiz-adv-x="569" 
d="M399 1462v-241q0 -111 -17 -149q-18 -41 -75 -71v41q51 33 51 179v241h41zM195 1462v-241q0 -109 -18 -149q-18 -41 -75 -71v41q52 34 52 179v241h41z" />
    <glyph glyph-name="quotedblbase" unicode="&#x201e;" horiz-adv-x="569" 
d="M399 201v-201q0 -100 -19 -154q-19 -55 -73 -90v41q51 50 51 203v201h41zM195 201v-201q0 -97 -20 -154q-19 -55 -73 -90v41q52 50 52 203v201h41z" />
    <glyph glyph-name="dagger" unicode="&#x2020;" horiz-adv-x="1138" 
d="M590 1462v-497h426v-41h-426v-1211h-41v1211h-426v41h426v497h41z" />
    <glyph glyph-name="daggerdbl" unicode="&#x2021;" horiz-adv-x="1138" 
d="M123 117v41h426v860h-426v41h426v403h41v-403h426v-41h-426v-860h426v-41h-426v-404h-41v404h-426z" />
    <glyph glyph-name="bullet" unicode="&#x2022;" 
d="M512 1096q150 0 259 -106q108 -105 108 -259q0 -153 -107 -260q-106 -106 -260 -106q-152 0 -258 106q-107 107 -107 260q0 151 107 258t258 107z" />
    <glyph glyph-name="ellipsis" unicode="&#x2026;" horiz-adv-x="2048" 
d="M362 0h-40v201h40v-201zM1044 0h-40v201h40v-201zM1726 0h-40v201h40v-201z" />
    <glyph glyph-name="perthousand" unicode="&#x2030;" horiz-adv-x="2123" 
d="M354 1417q153 0 235 -97q83 -98 83 -255q0 -148 -85 -248t-233 -100q-152 0 -231 99q-80 100 -80 247q0 160 82 257t229 97zM354 758q132 0 204 87q73 88 73 218q0 145 -69 229t-208 84q-135 0 -202 -85q-68 -86 -68 -228q0 -133 69 -219t201 -86zM1026 676
q153 0 235 -97t82 -255q0 -148 -85 -248q-86 -101 -232 -101q-151 0 -231 100t-80 247q0 160 82 257t229 97zM1026 16q132 0 204 87q73 88 73 219q0 145 -69 229t-208 84q-136 0 -203 -85t-67 -228q0 -136 68 -220q69 -86 202 -86zM1763 676q153 0 235 -97q83 -98 83 -255
q0 -148 -85 -248q-86 -101 -233 -101q-151 0 -231 100t-80 247q0 160 82 257t229 97zM1763 16q132 0 204 87q73 88 73 219q0 145 -69 229t-208 84q-135 0 -202 -85q-68 -86 -68 -228q0 -134 69 -220t201 -86zM1157 1462h47l-975 -1532h-47z" />
    <glyph glyph-name="guilsinglleft" unicode="&#x2039;" horiz-adv-x="530" 
d="M346 248l-211 284v33l211 285v-72l-170 -229l170 -230v-71z" />
    <glyph glyph-name="guilsinglright" unicode="&#x203a;" horiz-adv-x="530" 
d="M184 850l211 -285v-33l-211 -284v71l170 230l-170 229v72z" />
    <glyph glyph-name="trademark" unicode="&#x2122;" horiz-adv-x="2027" 
d="M475 1421h-307v41h655v-41h-307v-803h-41v803zM1016 1462h69l332 -786l332 786h70v-844h-41v803l-340 -803h-41l-336 803l-4 -803h-41v844z" />
    <glyph glyph-name="partialdiff" unicode="&#x2202;" horiz-adv-x="1011" 
d="M524 715q-107 0 -176 -123t-69 -330q0 -116 44 -180t128 -64q109 0 178 127q69 128 69 314q0 117 -44 187q-44 69 -130 69zM733 588q10 38 13 57q6 38 6 64l6 182q0 173 -32 258q-32 84 -97 84q-37 0 -103 -72q-65 -71 -114 -71q-34 0 -53 15q-18 14 -23 50q0 59 62 102
t147 43q158 0 228 -110q71 -113 95 -211q25 -105 25 -227q0 -334 -132 -556q-133 -223 -323 -223q-140 0 -225 105q-86 106 -86 280q0 167 109 294q108 126 256 126q90 0 148 -45q59 -45 93 -145z" />
    <glyph glyph-name="Delta" unicode="&#x2206;" horiz-adv-x="1253" 
d="M188 92h764l-381 940zM1219 0h-1176l565 1376h45z" />
    <glyph glyph-name="product" unicode="&#x220f;" horiz-adv-x="1685" 
d="M242 -360v1802h-181v82h1571v-82h-180v-1802h180v-82h-540v82h172v1802h-834v-1802h172v-82h-541v82h181z" />
    <glyph glyph-name="fraction" unicode="&#x2215;" horiz-adv-x="342" 
d="M635 1462h47l-975 -1532h-47z" />
    <glyph glyph-name="periodcentered" unicode="&#x2219;" horiz-adv-x="569" 
d="M285 762q65 0 65 -66q0 -65 -65 -65q-66 0 -66 65q0 66 66 66z" />
    <glyph glyph-name="radical" unicode="&#x221a;" horiz-adv-x="1124" 
d="M1217 1565h-117l-594 -1606h-66l-319 883l-125 -45l-25 80l283 98l256 -709l516 1395h191v-96z" />
    <glyph glyph-name="infinity" unicode="&#x221e;" horiz-adv-x="1460" 
d="M784 555q47 -92 119 -143q73 -47 158 -47q108 0 173 71q66 72 66 185q0 115 -61 183t-164 68q-76 0 -145 -73q-69 -74 -146 -244zM676 670q-51 92 -121 142q-67 48 -156 48q-105 0 -172 -72q-67 -71 -67 -184q0 -110 60 -181t157 -71q81 0 146 65t153 253zM750 487
q-67 -127 -147 -190q-81 -64 -175 -64q-136 0 -227 108q-92 109 -92 269q0 171 84 276t215 105q97 0 169 -60t134 -194q64 129 142 191q79 63 179 63q128 0 223 -108q95 -109 95 -269q0 -169 -83 -275t-214 -106q-93 0 -172 62q-74 64 -131 192z" />
    <glyph glyph-name="integral" unicode="&#x222b;" horiz-adv-x="561" 
d="M580 1550q72 0 119 -38q46 -37 46 -99q0 -43 -26 -70q-27 -28 -74 -28q-60 0 -90 65q-30 66 -59 66q-117 0 -117 -635l-6 -201q0 -128 -9 -245q-8 -109 -29 -263q-19 -141 -64 -245q-44 -101 -123 -164q-81 -64 -166 -64q-72 0 -119 38t-47 100q0 45 25 70q26 26 75 26
q60 0 90 -64q30 -63 62 -65q116 0 116 663l4 172q0 101 9 238q7 114 27 261q19 144 65 251q45 104 122 168q77 63 169 63z" />
    <glyph glyph-name="approxequal" unicode="&#x2248;" horiz-adv-x="1124" 
d="M31 205v157q108 68 178 92q78 27 151 27q92 0 236 -49t203 -49q55 0 126 31q69 30 169 106v-160q-88 -58 -157 -85q-71 -27 -149 -27q-66 0 -213 48t-237 48q-59 0 -110 -22q-39 -17 -98 -51q-46 -27 -99 -66zM31 449v157q43 26 89 51q45 24 103 44q64 22 135 22
q86 0 235 -48q148 -48 206 -48t123 29q68 30 172 106v-158q-46 -29 -84 -49q-45 -23 -101 -44q-51 -19 -121 -19q-67 0 -214 48t-226 48q-70 0 -135 -28q-64 -28 -182 -111z" />
    <glyph glyph-name="notequal" unicode="&#x2260;" horiz-adv-x="1124" 
d="M846 688h186v-131h-305l-149 -147h454v-131h-575l-242 -242l-88 90l152 152h-187v131h307l150 147h-457v131h576l241 242l90 -90z" />
    <glyph glyph-name="lessequal" unicode="&#x2264;" horiz-adv-x="1124" 
d="M1036 37h-948v139h948v-139zM332 573l704 -219v-143l-946 297v133l946 297v-143z" />
    <glyph glyph-name="greaterequal" unicode="&#x2265;" horiz-adv-x="1124" 
d="M1036 37h-948v139h948v-139zM1036 508l-948 -297v143l705 219l-705 222v143l948 -297v-133z" />
    <glyph glyph-name="lozenge" unicode="&#x25ca;" horiz-adv-x="1011" 
d="M506 1409l-385 -817l385 -825l385 825zM506 1653l500 -1061l-500 -1069l-500 1069z" />
    <glyph glyph-name="apple" unicode="&#xf000;" horiz-adv-x="1617" 
d="M836 1217l-2 14v22q0 126 94 230t237 131v-25l2 -37q0 -131 -103 -234q-104 -104 -204 -104h-8zM1505 403q-114 -246 -207 -343q-92 -95 -202 -95q-52 0 -131 33t-123 33q-47 0 -131 -33t-127 -33q-62 0 -129 43q-27 21 -63 57q-39 39 -99 122q-63 87 -122 247
q-58 158 -58 303q0 220 126 358t322 138q30 0 73 -8q36 -7 105 -35q66 -27 101 -27t125 35t149 35q114 0 200 -40q88 -41 159 -124q-102 -64 -151 -144q-50 -82 -50 -184q0 -111 61 -200q63 -92 172 -138z" />
    <glyph glyph-name="fi" unicode="&#xf001;" horiz-adv-x="681" 
d="M569 0h-41v1053h41v-1053zM569 1255h-41v207h41v-207zM-2 1012v41h180v233q0 114 56 145t151 31q31 0 49 -3q23 -4 39 -5v-41q-54 8 -96 8q-96 0 -126 -33q-32 -35 -32 -116v-219h227v-41h-227v-1012h-41v1012h-180z" />
    <glyph glyph-name="fl" unicode="&#xf002;" horiz-adv-x="681" 
d="M-2 1012v41h180v233q0 114 56 145t151 31q31 0 49 -3q23 -4 39 -5v-41q-54 8 -96 8q-96 0 -126 -33q-32 -35 -32 -116v-219h227v-41h-227v-1012h-41v1012h-180zM569 0h-41v1462h41v-1462z" />
    <glyph glyph-name="Lslash" horiz-adv-x="985" 
d="M111 0v551l-152 -107v50l152 106v862h41v-833l507 356v-49l-507 -356v-539h854v-41h-895z" />
    <glyph glyph-name="lslash" horiz-adv-x="266" 
d="M154 1462v-608l149 129v-51l-149 -129v-803h-41v768l-150 -129v51l150 129v643h41z" />
    <glyph glyph-name="Scaron" horiz-adv-x="1251" 
d="M1087 1053q0 211 -129 307t-346 96q-186 0 -322 -79t-136 -257q0 -204 132 -251q118 -42 358 -102q226 -57 306 -84q81 -28 144 -104q63 -77 63 -221q0 -192 -153 -292q-154 -101 -363 -101q-266 0 -418 127q-153 128 -153 393h41q0 -251 140 -364q142 -115 390 -115
q193 0 335 89q140 88 140 265q0 191 -114 248q-117 58 -356 116q-245 59 -388 115q-145 57 -145 281q0 200 146 288q148 89 353 89q235 0 375 -106q141 -107 141 -338h-41zM420 1907l211 -252l203 252h40l-231 -285h-31l-233 285h41z" />
    <glyph glyph-name="scaron" horiz-adv-x="948" 
d="M799 741q0 151 -91 223q-92 72 -249 72q-151 0 -233 -61q-83 -62 -83 -162q0 -75 29 -119q28 -43 78 -61q62 -22 127 -40l220 -58q143 -38 207 -100q64 -63 64 -167q0 -148 -112 -220q-114 -73 -269 -73q-211 0 -319 94q-107 93 -107 291h41q0 -174 99 -259
q98 -85 286 -85q133 0 237 62q103 61 103 186q0 124 -84 167q-87 45 -227 80q-141 35 -193 51q-56 17 -136 52q-85 37 -85 199q0 102 88 183t269 81q183 0 281 -82q100 -83 100 -254h-41zM268 1497l211 -252l203 252h41l-231 -285h-31l-234 285h41z" />
    <glyph glyph-name="Zcaron" 
d="M1040 41v-41h-1079v55l1022 1366h-965v41h1006v-55l-1022 -1366h1038zM305 1907l211 -252l203 252h41l-232 -285h-30l-234 285h41z" />
    <glyph glyph-name="zcaron" horiz-adv-x="833" 
d="M823 41v-41h-813v51l738 961h-682v41h725v-52l-738 -960h770zM211 1497l211 -252l203 252h41l-232 -285h-31l-233 285h41z" />
    <glyph glyph-name="brokenbar" horiz-adv-x="454" 
d="M248 -35h-41v590h41v-590zM248 1497v-590h-41v590h41z" />
    <glyph glyph-name="Eth" horiz-adv-x="1327" 
d="M-20 741v41h131v680h512q258 0 440 -169t182 -562q0 -367 -197 -549t-489 -182h-448v741h-131zM152 741v-700h417q277 0 456 176t179 514q0 376 -169 533t-423 157h-460v-639h608v-41h-608z" />
    <glyph glyph-name="glyph234" horiz-adv-x="1062" 
d="M510 1327q-52 40 -86 63q-42 29 -105 60l33 29q58 -30 105 -63q61 -42 92 -68l252 139l30 -33l-245 -137q222 -204 320 -394q100 -194 100 -415q0 -222 -127 -376q-128 -155 -349 -155q-220 0 -347 154q-126 153 -126 377q0 222 126 376t349 154q106 0 190 -34t142 -113
h8q-54 110 -150 223q-103 120 -179 184l-250 -139l-31 31zM532 18q204 0 318 143q115 144 115 347q0 201 -116 346q-115 143 -317 143q-203 0 -318 -143q-116 -145 -116 -346t116 -346q116 -144 318 -144z" />
    <glyph glyph-name="Yacute" horiz-adv-x="1101" 
d="M1114 1462h49l-592 -846v-616h-41v616l-591 846h51l561 -803zM768 1907l-299 -295h-31l271 295h59z" />
    <glyph glyph-name="yacute" horiz-adv-x="833" 
d="M815 1053h43l-485 -1268q-38 -97 -100 -122t-179 -25v40q116 0 164 23q47 23 82 113l76 196l-441 1043h45l418 -998zM635 1497l-299 -295h-31l270 295h60z" />
    <glyph glyph-name="Thorn" horiz-adv-x="1175" 
d="M152 453h550q175 0 290 95q114 94 114 261q0 358 -404 358h-550v-714zM702 1208q211 0 328 -102t117 -297q0 -188 -128 -293q-126 -104 -337 -104h-530v-412h-41v1462h41v-254h550z" />
    <glyph glyph-name="thorn" horiz-adv-x="1099" 
d="M580 1036q-205 0 -316 -145q-110 -144 -110 -363q0 -242 116 -376q118 -136 310 -136q212 0 310 150q97 149 97 362q0 222 -101 365t-306 143zM154 -362h-41v1824h41v-704q45 148 151 233q107 86 275 86q212 0 330 -151t118 -398q0 -237 -113 -395t-335 -158
q-158 0 -272 87q-112 85 -150 233z" />
    <glyph glyph-name="minus" horiz-adv-x="1228" 
d="M98 498v41h1032v-41h-1032z" />
    <glyph glyph-name="multiply" horiz-adv-x="1228" 
d="M197 907l28 27l387 -391l392 391l28 -27l-391 -389l391 -389l-28 -29l-392 392l-387 -392l-28 29l389 389z" />
    <glyph glyph-name="onesuperior" horiz-adv-x="681" 
d="M371 1356q-37 -49 -106 -88t-138 -60v39q80 26 130 59t110 97h45v-836h-41v789z" />
    <glyph glyph-name="twosuperior" horiz-adv-x="681" 
d="M647 608v-41h-610q0 82 47 141q46 57 225 175q181 119 226 181q47 65 47 140q0 84 -66 128q-67 44 -172 44q-129 0 -189 -63q-61 -64 -61 -185h-41q0 145 69 217t222 72q126 0 202 -52q77 -53 77 -161q0 -90 -55 -163q-55 -74 -219 -178q-165 -105 -213 -156
q-47 -50 -52 -99h563z" />
    <glyph glyph-name="threesuperior" horiz-adv-x="681" 
d="M49 1145q0 131 84 202q83 70 225 70q121 0 203 -46t82 -159q0 -84 -59 -139t-150 -55q97 -5 161 -61q64 -57 64 -158q0 -111 -90 -178q-91 -68 -215 -68q-156 0 -244 77q-87 76 -87 220h40q0 -125 76 -191q75 -65 213 -65q111 0 189 54q77 53 77 151q0 104 -74 150
t-190 46h-49v43h53q104 0 174 41t70 133q0 95 -67 129q-68 35 -179 35q-130 0 -198 -57t-68 -174h-41z" />
    <glyph glyph-name="onehalf" horiz-adv-x="1708" 
d="M1174 1462h47l-975 -1532h-47zM377 1356q-37 -49 -106 -88t-138 -60v39q80 26 130 59t110 97h45v-836h-41v789zM1577 41v-41h-610q0 81 47 140q46 57 225 175q178 117 225 182t47 140q0 85 -65 128q-67 44 -172 44q-129 0 -190 -64q-60 -63 -60 -184h-41q0 144 69 216
q70 73 222 73q126 0 202 -52t76 -161q0 -91 -54 -163q-55 -74 -219 -178q-163 -104 -213 -157q-47 -50 -52 -98h563z" />
    <glyph glyph-name="onequarter" horiz-adv-x="1708" 
d="M1270 1462h47l-975 -1532h-47zM453 1356q-37 -49 -106 -88t-138 -60v39q80 26 130 59t110 97h45v-836h-41v789zM1300 776h-4l-405 -526h409v526zM848 209v51l442 576h51v-586h156v-41h-156v-209h-41v209h-452z" />
    <glyph glyph-name="threequarters" horiz-adv-x="1708" 
d="M1380 1462h47l-974 -1532h-47zM1399 776h-4l-406 -526h410v526zM946 209v51l443 576h51v-586h155v-41h-155v-209h-41v209h-453zM139 1145q0 131 84 202q83 70 226 70q120 0 202 -46t82 -159q0 -84 -59 -139t-150 -55q97 -5 161 -61q65 -57 65 -158q0 -110 -91 -178
t-215 -68q-156 0 -244 77q-87 76 -87 220h41q0 -126 75 -191t213 -65q111 0 189 54t78 151q0 105 -76 151q-77 47 -189 47l-49 -2v43h54q104 0 174 41q69 41 69 133q0 95 -67 129q-68 35 -179 35q-130 0 -198 -57t-68 -174h-41z" />
  </font>
</defs>
</svg>
